<mxfile host="app.diagrams.net" modified="2023-07-04T12:07:46.596Z" agent="Mozilla/5.0 (Windows NT 10.0; Win64; x64) AppleWebKit/537.36 (KHTML, like Gecko) Chrome/114.0.0.0 Safari/537.36" etag="7ABnk1Eg5kEUQDT2oqJM" version="21.5.2" type="github">
  <diagram name="Page-1" id="42789a77-a242-8287-6e28-9cd8cfd52e62">
    <mxGraphModel dx="1050" dy="549" grid="1" gridSize="10" guides="1" tooltips="1" connect="1" arrows="1" fold="1" page="1" pageScale="1" pageWidth="1100" pageHeight="850" background="none" math="0" shadow="0">
      <root>
        <mxCell id="0" />
        <mxCell id="1" parent="0" />
        <mxCell id="tU_RkVk5_5bCf6Fj4NFK-1" value="&lt;font style=&quot;font-size: 18px;&quot;&gt;板坯重量&lt;/font&gt;" style="ellipse;whiteSpace=wrap;html=1;" vertex="1" parent="1">
          <mxGeometry x="80" y="100" width="120" height="80" as="geometry" />
        </mxCell>
        <mxCell id="tU_RkVk5_5bCf6Fj4NFK-2" value="&lt;span style=&quot;font-size: 18px;&quot;&gt;加热炉宽度&lt;/span&gt;" style="ellipse;whiteSpace=wrap;html=1;" vertex="1" parent="1">
          <mxGeometry x="80" y="210" width="120" height="80" as="geometry" />
        </mxCell>
        <mxCell id="tU_RkVk5_5bCf6Fj4NFK-4" value="&lt;font style=&quot;font-size: 18px;&quot;&gt;板坯厚度&lt;/font&gt;" style="ellipse;whiteSpace=wrap;html=1;" vertex="1" parent="1">
          <mxGeometry x="290" y="100" width="120" height="80" as="geometry" />
        </mxCell>
        <mxCell id="tU_RkVk5_5bCf6Fj4NFK-5" value="&lt;font style=&quot;font-size: 18px;&quot;&gt;板坯宽度&lt;/font&gt;" style="ellipse;whiteSpace=wrap;html=1;" vertex="1" parent="1">
          <mxGeometry x="290" y="210" width="120" height="80" as="geometry" />
        </mxCell>
        <mxCell id="tU_RkVk5_5bCf6Fj4NFK-6" value="&lt;font style=&quot;font-size: 18px;&quot;&gt;板坯长度&lt;/font&gt;" style="ellipse;whiteSpace=wrap;html=1;" vertex="1" parent="1">
          <mxGeometry x="290" y="320" width="120" height="80" as="geometry" />
        </mxCell>
      </root>
    </mxGraphModel>
  </diagram>
</mxfile>
